<?xml version="1.0" standalone="no"?>
<!DOCTYPE svg PUBLIC "-//W3C//DTD SVG 20010904//EN"
 "http://www.w3.org/TR/2001/REC-SVG-20010904/DTD/svg10.dtd">
<svg version="1.0" xmlns="http://www.w3.org/2000/svg"
 width="512.000000pt" height="512.000000pt" viewBox="0 0 512.000000 512.000000"
 preserveAspectRatio="xMidYMid meet">

<g transform="translate(0.000000,512.000000) scale(0.100000,-0.100000)"
fill="#000000" stroke="none">
<path d="M2497 3984 c-4 -4 -7 -58 -7 -121 l0 -113 525 0 525 0 0 -825 0 -826
128 3 127 3 0 855 0 855 -23 47 c-27 55 -68 92 -120 110 -41 13 -1142 25
-1155 12z"/>
<path d="M1884 3591 c-2 -2 -4 -427 -4 -943 l0 -938 124 0 125 0 114 168 c62
92 178 263 257 381 l144 213 21 -25 c11 -14 155 -186 320 -381 l300 -356 148
0 c81 0 147 2 147 5 0 3 -178 219 -395 480 -217 261 -395 479 -395 484 0 6
135 210 300 455 165 244 300 449 300 455 0 7 -44 11 -133 11 -115 0 -136 -2
-149 -17 -8 -10 -230 -346 -494 -748 l-479 -729 -5 744 -5 745 -118 0 c-65 0
-120 -2 -123 -4z"/>
<path d="M1422 2343 c3 -950 -1 -893 68 -962 60 -60 76 -61 687 -61 l553 0 0
120 0 120 -525 0 -525 0 0 820 0 820 -130 0 -131 0 3 -857z"/>
<path d="M3097 1614 c-4 -4 -7 -67 -7 -141 0 -120 2 -133 18 -133 16 0 17 13
17 137 0 128 -6 158 -28 137z"/>
<path d="M3757 1614 c-4 -4 -7 -31 -7 -60 l0 -52 -30 15 c-62 30 -120 -11
-120 -84 0 -33 6 -50 25 -68 33 -34 93 -34 132 -1 28 24 28 26 28 137 0 105
-7 133 -28 113z m-19 -136 c17 -17 15 -68 -5 -90 -9 -10 -29 -18 -44 -18 -49
0 -78 70 -43 104 18 19 75 21 92 4z"/>
<path d="M2922 1515 c-56 -24 -68 -94 -26 -144 20 -25 34 -31 64 -31 52 0 68
8 86 41 13 26 13 29 -1 29 -8 0 -24 -9 -35 -20 -20 -20 -55 -26 -77 -12 -22
14 -32 57 -19 83 16 33 79 39 98 10 11 -19 48 -30 48 -15 0 17 -24 46 -50 59
-35 18 -46 18 -88 0z"/>
<path d="M3220 1523 c-63 -23 -83 -111 -35 -158 50 -51 147 -21 161 49 13 72
-58 134 -126 109z m78 -45 c17 -17 15 -68 -5 -90 -35 -39 -103 -9 -103 46 0
45 76 76 108 44z"/>
<path d="M3380 1455 c0 -83 25 -115 90 -115 57 0 89 33 92 95 1 25 2 53 2 62
1 10 -7 19 -16 21 -16 3 -18 -5 -18 -56 0 -66 -18 -92 -63 -92 -37 0 -57 34
-57 97 0 40 -4 53 -15 53 -12 0 -15 -14 -15 -65z"/>
</g>
</svg>
